<svg viewBox="0 0 100 100" xmlns="http://www.w3.org/2000/svg">
  <defs>
    <linearGradient id="bgGrad" x1="0%" y1="0%" x2="0%" y2="100%">
      <stop offset="0%" style="stop-color:#4A90E2;stop-opacity:1" />
      <stop offset="100%" style="stop-color:#357ABD;stop-opacity:1" />
    </linearGradient>
    <linearGradient id="faceGrad" x1="0%" y1="0%" x2="0%" y2="100%">
      <stop offset="0%" style="stop-color:#DEB887;stop-opacity:1" />
      <stop offset="100%" style="stop-color:#CD853F;stop-opacity:1" />
    </linearGradient>
  </defs>
  
  <!-- Background circle -->
  <circle cx="50" cy="50" r="50" fill="url(#bgGrad)"/>
  
  <!-- Face -->
  <circle cx="50" cy="40" r="20" fill="url(#faceGrad)"/>
  
  <!-- Eyes -->
  <circle cx="45" cy="35" r="2" fill="#2F4F4F"/>
  <circle cx="55" cy="35" r="2" fill="#2F4F4F"/>
  
  <!-- Nose -->
  <ellipse cx="50" cy="40" rx="1" ry="2" fill="#CD853F"/>
  
  <!-- Mouth -->
  <path d="M 47 44 Q 50 47 53 44" stroke="#2F4F4F" stroke-width="1" fill="none"/>
  
  <!-- Hair -->
  <path d="M 30 35 Q 50 25 70 35 Q 65 30 50 28 Q 35 30 30 35" fill="#2F4F4F"/>
  
  <!-- Shirt/clothing -->
  <path d="M 30 60 Q 50 55 70 60 Q 70 80 50 85 Q 30 80 30 60" fill="#fff"/>
  
  <!-- Collar -->
  <path d="M 45 58 Q 50 55 55 58" stroke="#DDD" stroke-width="1" fill="none"/>
  
  <!-- Simple tie -->
  <rect x="48" y="58" width="4" height="15" fill="#34A853"/>
  
  <!-- Subtle facial features -->
  <circle cx="43" cy="37" r="0.5" fill="#fff" opacity="0.8"/>
  <circle cx="53" cy="37" r="0.5" fill="#fff" opacity="0.8"/>
</svg> 