<svg viewBox="0 0 100 100" xmlns="http://www.w3.org/2000/svg">
  <defs>
    <linearGradient id="bgGradient" x1="0%" y1="0%" x2="0%" y2="100%">
      <stop offset="0%" style="stop-color:#FF6B6B;stop-opacity:1" />
      <stop offset="100%" style="stop-color:#E74C3C;stop-opacity:1" />
    </linearGradient>
    <linearGradient id="faceGradient" x1="0%" y1="0%" x2="0%" y2="100%">
      <stop offset="0%" style="stop-color:#DEB887;stop-opacity:1" />
      <stop offset="100%" style="stop-color:#CD853F;stop-opacity:1" />
    </linearGradient>
  </defs>
  
  <!-- Background circle -->
  <circle cx="50" cy="50" r="50" fill="url(#bgGradient)"/>
  
  <!-- Face -->
  <circle cx="50" cy="40" r="20" fill="url(#faceGradient)"/>
  
  <!-- Eyes -->
  <circle cx="45" cy="35" r="2" fill="#2F4F4F"/>
  <circle cx="55" cy="35" r="2" fill="#2F4F4F"/>
  
  <!-- Eyelashes -->
  <path d="M 43 33 L 44 32" stroke="#2F4F4F" stroke-width="0.5"/>
  <path d="M 45 32 L 46 31" stroke="#2F4F4F" stroke-width="0.5"/>
  <path d="M 47 33 L 48 32" stroke="#2F4F4F" stroke-width="0.5"/>
  
  <path d="M 53 33 L 54 32" stroke="#2F4F4F" stroke-width="0.5"/>
  <path d="M 55 32 L 56 31" stroke="#2F4F4F" stroke-width="0.5"/>
  <path d="M 57 33 L 58 32" stroke="#2F4F4F" stroke-width="0.5"/>
  
  <!-- Nose -->
  <ellipse cx="50" cy="40" rx="1" ry="2" fill="#CD853F"/>
  
  <!-- Mouth (slight smile) -->
  <path d="M 47 44 Q 50 46 53 44" stroke="#2F4F4F" stroke-width="1" fill="none"/>
  
  <!-- Hair (longer, more feminine) -->
  <path d="M 28 35 Q 50 20 72 35 Q 70 45 65 50 Q 60 45 55 42 Q 50 38 45 42 Q 40 45 35 50 Q 30 45 28 35" fill="#2F4F4F"/>
  
  <!-- Hair details -->
  <path d="M 32 40 Q 35 38 38 40" stroke="#1F3F3F" stroke-width="0.5" fill="none"/>
  <path d="M 62 40 Q 65 38 68 40" stroke="#1F3F3F" stroke-width="0.5" fill="none"/>
  
  <!-- Blouse/top -->
  <path d="M 30 60 Q 50 55 70 60 Q 70 80 50 85 Q 30 80 30 60" fill="#FFF"/>
  
  <!-- Neckline -->
  <path d="M 45 58 Q 50 55 55 58" stroke="#DDD" stroke-width="1" fill="none"/>
  
  <!-- Simple necklace -->
  <circle cx="50" cy="60" r="1.5" fill="#FFD700"/>
  
  <!-- Subtle facial features -->
  <circle cx="43" cy="37" r="0.5" fill="#fff" opacity="0.8"/>
  <circle cx="53" cy="37" r="0.5" fill="#fff" opacity="0.8"/>
  
  <!-- Subtle cheek highlights -->
  <circle cx="42" cy="42" r="2" fill="#F4A460" opacity="0.3"/>
  <circle cx="58" cy="42" r="2" fill="#F4A460" opacity="0.3"/>
  
  <!-- Earrings -->
  <circle cx="33" cy="42" r="1" fill="#FFD700"/>
  <circle cx="67" cy="42" r="1" fill="#FFD700"/>
</svg> 